# xmcd
#
# Track frame offsets:
# 150
# 16710
# 36992
# 55807
# 72091
# 88865
# 106964
# 125324
# 145790
# 163227
#
# Disc length: 2422 seconds
#
#
# Revision: 1
# Processed by: cddbd v1.5.1PL2 Copyright (c) Steve Scherf et al.
# Submitted via: FreeRIP 2.941 
#
DISCID=8109740a
DTITLE=Cutting The Mustard - Pete Mitchell
DYEAR=2006
DGENRE=Blues
TTITLE0=I'm Gonna Get You
TTITLE1=Rock 'n Roll
TTITLE2=One Track Mind
TTITLE3=Free Man
TTITLE4=Bee My Honey
TTITLE5=Outside Looking In
TTITLE6=Roadhog
TTITLE7=Play My Guitar
TTITLE8=A Matter Of Time
TTITLE9=Touche
EXTD=As heard on\nBluesfestRadio.com
EXTT0=
EXTT1=
EXTT2=
EXTT3=
EXTT4=
EXTT5=
EXTT6=
EXTT7=
EXTT8=
EXTT9=
PLAYORDER=
